<svg width="89.433594" height="26.945190" id="capitalist" viewBox="0 0 89.4336 26.9452" fill="none" xmlns="http://www.w3.org/2000/svg" xmlns:xlink="http://www.w3.org/1999/xlink">
	<desc>
			Created with Pixso.
	</desc>
	<defs/>
	<path id="Vector" d="M3.57812 0L13.9492 0C14.5703 0 15.1641 0.463379 15.0781 1.01306L14.1562 6.94043L14.1484 6.94043L14.1484 6.9458C14.1484 6.95117 14.1484 6.96191 14.1484 6.96741L14.1406 7.02124C14.0938 7.18823 13.9336 7.31226 13.7344 7.31226L3.76562 7.31226C3.55469 7.31226 3.37891 7.17212 3.35547 6.98352L2.44922 1.01306C2.36719 0.463379 2.95703 0 3.57812 0ZM1.32422 11.4938C3.52344 13.0026 6.10547 13.8 8.77344 13.8C11.3672 13.8 13.9062 13.0671 16.0508 11.6123C17.3828 10.7124 18.0312 12.275 17.1445 12.8408C14.6133 14.4467 11.7891 15.4327 8.77344 15.4327C5.75781 15.4327 2.96875 14.4036 0.417969 12.8517C0.167969 12.6953 0 12.4368 0 12.135C0 11.4183 0.679688 11.0519 1.32422 11.4938ZM7.82031 18.3048C8.28516 18.0946 9.28516 18.0839 9.75 18.2941C10.0781 17.1732 11.1172 16.3918 12.3047 16.3918C13.7773 16.3918 14.9727 17.5828 14.9727 19.0485C14.9727 20.5142 13.7773 21.705 12.3047 21.705C10.8359 21.705 9.64062 20.5142 9.64062 19.0485C9.64062 19.0269 9.64062 18.9999 9.64062 18.9784C9.34375 18.709 8.23047 18.7358 7.92188 18.9891C7.92188 19.0107 7.92188 19.0269 7.92188 19.0485C7.92188 20.5142 6.73047 21.705 5.25781 21.705C3.78906 21.705 2.59375 20.5142 2.59375 19.0485C2.59375 17.5828 3.78906 16.3918 5.25781 16.3918C6.45312 16.3865 7.49609 17.1786 7.82031 18.3048ZM12.3008 17.0062C11.1758 17.0062 10.2617 17.9169 10.2617 19.0376C10.2617 20.1584 11.1758 21.0691 12.3008 21.0691C13.4258 21.0691 14.3398 20.1584 14.3398 19.0376C14.3438 17.9169 13.4297 17.0062 12.3008 17.0062ZM5.26562 17.0062C4.14062 17.0062 3.22656 17.9169 3.22656 19.0376C3.22656 20.1584 4.14062 21.0691 5.26562 21.0691C6.38672 21.0691 7.30078 20.1584 7.30078 19.0376C7.30078 17.9169 6.38672 17.0062 5.26562 17.0062ZM1.53516 24.0706C1.66406 24.9165 2.00391 25.6062 2.63672 26.1074C4.42188 27.5138 7.23828 27.0504 8.78906 25.4553C10.332 27.0396 13.1484 27.5031 14.9297 26.0966C15.5664 25.5955 15.9023 24.9058 16.0312 24.0597C14.9805 24.8518 14.1328 25.2883 12.6094 24.6794C11.0312 24.049 10.3008 21.7427 8.78125 23.7202C7.3125 21.7373 6.52344 24.0652 4.96094 24.6902C3.43359 25.2937 2.57812 24.8627 1.53516 24.0706ZM13.8828 8.66479L13.8789 8.68091C13.875 8.71326 13.8633 8.74561 13.8477 8.77795L13.8633 8.78333L13.4727 11.2997C13.2852 12.5122 9.66016 12.8301 8.63672 12.8301C7.66016 12.8301 4.1875 12.4799 4.01172 11.2997L3.60938 8.64856C3.60938 8.63782 3.60938 8.62708 3.60938 8.62158C3.60938 8.41687 3.79297 8.24988 4.02734 8.24988L13.4727 8.24988C13.6992 8.24988 13.8906 8.41687 13.8906 8.62158C13.8906 8.63782 13.8906 8.65393 13.8828 8.66479Z" fill="#8EA652" fill-opacity="1.000000" fill-rule="evenodd"/>
	<path id="Vector" d="M73.8711 5.71753L73.8945 3.69141L76.3516 3.69141L76.3281 5.71753L73.8711 5.71753ZM73.8945 16.834L73.8711 6.849L76.3281 6.849L76.3516 16.834L73.8945 16.834ZM51.2305 5.71753L51.2539 3.69141L53.7109 3.69141L53.6875 5.71753L51.2305 5.71753ZM46.8477 14.5331C47.1289 14.269 47.375 13.8704 47.5117 13.4069C47.6523 12.9435 47.7266 12.4154 47.7266 11.8173C47.7266 11.2245 47.6602 10.6964 47.5195 10.2438C47.3789 9.78577 47.1797 9.37085 46.875 9.07446C46.5391 8.77271 46.1367 8.60034 45.7344 8.60034C44.3047 8.60034 44.0312 9.91516 44.0312 10.551L44.0312 12.771C44.0312 14.9373 45.4023 14.9911 45.6836 14.9911C46.0938 14.9803 46.5664 14.7971 46.8477 14.5331ZM64.4453 15.045C64.6133 14.9803 64.7812 14.8833 64.9336 14.7487C65.0898 14.6193 65.2148 14.4362 65.3164 14.2206C65.4141 13.9996 65.4688 13.7356 65.4727 13.4177L65.4727 12.0813C65.1445 12.0759 64.8242 12.1029 64.5156 12.1567C64.207 12.2052 63.9219 12.2969 63.6758 12.4261C63.418 12.5609 63.2188 12.7441 63.0742 12.9705C62.9219 13.2075 62.8477 13.4069 62.8398 13.7679C62.8477 14.0804 62.9023 14.3391 63.0039 14.5385C63.1016 14.7379 63.2461 14.8833 63.4141 14.9803C63.582 15.0774 63.7695 15.1259 63.9727 15.1205C64.1211 15.1366 64.2773 15.1042 64.4453 15.045ZM65.5859 15.9557L65.5547 15.9827C65.3008 16.3813 64.6055 17.0172 63.2539 17.0172C62.7188 17.0118 62.2617 16.8717 61.875 16.6077C61.4922 16.3383 61.1914 15.9772 60.9805 15.53C60.7773 15.0774 60.668 14.5815 60.668 14.0374C60.668 13.4015 60.7891 12.8411 61.0156 12.3777C61.2461 11.9034 61.5664 11.5155 61.9922 11.2084C62.4102 10.8959 62.9062 10.6642 63.4805 10.5187C64.0508 10.3678 64.6836 10.2924 65.3672 10.2924C65.3711 9.96362 65.3281 9.66724 65.2461 9.4032C65.1602 9.1499 65.0039 8.93982 64.7773 8.78894C64.5547 8.63806 64.2305 8.55725 63.8203 8.55725C63.418 8.55725 63.043 8.62183 62.6797 8.74585C62.3125 8.86975 61.9883 9.03137 61.707 9.23083L61.2734 7.51184C61.4648 7.38257 61.707 7.25317 62 7.11853C62.2969 6.99451 62.6289 6.88672 63.0078 6.80054C63.3945 6.71436 63.8047 6.67664 64.2539 6.67126C64.9219 6.67664 65.4688 6.78979 65.9102 7.01074C66.3555 7.23169 66.6992 7.53882 66.9531 7.92676C67.207 8.3147 67.3906 8.75659 67.5 9.24695C67.6094 9.74268 67.6562 10.2654 67.6562 10.8151L67.6562 14.3175C67.6562 14.7594 67.8984 15.2283 68.5391 15.2659L68.5391 17.1141C67.1602 17.4591 66.1602 17.098 65.5859 15.9557ZM36.5859 15.045C36.7539 14.9803 36.9219 14.8833 37.0703 14.7487C37.2266 14.6193 37.3516 14.4362 37.457 14.2206C37.5547 13.9996 37.6055 13.7356 37.6133 13.4177L37.6133 12.0813C37.2812 12.0759 36.9648 12.1029 36.6562 12.1567C36.3477 12.2052 36.0625 12.2969 35.8125 12.4261C35.5586 12.5609 35.3594 12.7441 35.2109 12.9705C35.0625 13.2075 34.9844 13.4069 34.9805 13.7679C34.9844 14.0804 35.0391 14.3391 35.1406 14.5385C35.2383 14.7379 35.3867 14.8833 35.5547 14.9803C35.7188 15.0774 35.9102 15.1259 36.1094 15.1205C36.2617 15.1366 36.418 15.1042 36.5859 15.045ZM51.2539 16.834L51.2305 6.849L53.6875 6.849L53.7109 16.834L51.2539 16.834ZM79.1836 16.9418C78.8555 16.8824 78.5547 16.807 78.2656 16.7047C77.9844 16.6023 77.7383 16.4891 77.5195 16.3544L77.8164 14.4092C77.9922 14.517 78.668 14.8456 79.3438 14.9857C79.6133 15.0558 79.8867 15.0881 80.1484 15.0935C80.5859 15.0881 80.9102 14.9965 81.1133 14.8187C81.3242 14.6355 81.4297 14.3929 81.418 14.0804C81.4102 13.8811 81.3672 13.6979 81.2773 13.5416C81.1914 13.3907 81.0508 13.2452 80.8438 13.1051C80.6484 12.9705 80.375 12.8196 80.0273 12.6687C79.4414 12.41 78.9648 12.1244 78.6016 11.8173C78.2461 11.4994 77.9805 11.1707 77.8125 10.8204C77.6445 10.4701 77.5547 10.1091 77.5469 9.7373C77.5312 9.12842 77.6602 8.5896 77.9258 8.10999C78.1914 7.63574 78.5781 7.25854 79.082 6.97839C79.5898 6.70361 80.1914 6.56348 80.8867 6.55811C81.3672 6.56348 81.8125 6.61731 82.2188 6.7251C82.6172 6.83289 82.957 6.96216 83.2344 7.1239L83.0508 9.04761C82.8398 8.92358 82.3477 8.76196 82.0352 8.65417C81.7266 8.54102 81.3906 8.48718 81.0352 8.47644C80.6562 8.48181 80.3672 8.57874 80.1797 8.75122C79.9922 8.92908 79.8945 9.1554 79.9023 9.43555C79.9023 9.61877 79.9531 9.7804 80.0508 9.92053C80.1406 10.066 80.2969 10.2007 80.5078 10.3301C80.7266 10.4647 81.0117 10.6102 81.375 10.7719C82.1758 11.1222 82.7734 11.5479 83.1641 12.049C83.5586 12.5555 83.7695 13.1537 83.7852 13.8434C83.8008 14.4846 83.6719 15.045 83.3945 15.5192C83.1211 15.9934 82.7109 16.3652 82.168 16.6293C81.6289 16.8878 80.9648 17.0226 80.1836 17.0333C79.8438 17.0172 79.5039 16.9956 79.1836 16.9418ZM28.3984 17.028C27.4766 17.0226 26.668 16.8501 25.9609 16.5106C25.25 16.1711 24.6562 15.6863 24.1719 15.0558C23.6914 14.4307 23.3203 13.6818 23.0742 12.8196C22.8203 11.952 22.6953 10.9928 22.6953 9.93665C22.6992 8.69727 22.8633 7.60889 23.1758 6.68201C23.4883 5.74976 23.9219 4.96851 24.4727 4.34875C25.0234 3.72375 25.6562 3.25488 26.375 2.94238C27.0938 2.62988 27.8672 2.47363 28.6836 2.47363C29.1211 2.47363 29.5117 2.50586 29.8477 2.55981C30.6562 2.72144 31.4766 2.94238 32.3164 3.33032L32.1055 5.35107L31.3633 5.3457C30.5469 4.84998 29.6875 4.75293 28.793 4.75293C28.2852 4.75293 27.8086 4.85535 27.3711 5.05469C26.9336 5.2594 26.543 5.56665 26.2148 5.98145C25.8828 6.39099 25.625 6.91907 25.4414 7.54956C25.2578 8.18005 25.1602 8.92908 25.1562 9.7804C25.1602 10.8528 25.3125 11.7526 25.6016 12.4801C25.8984 13.2129 26.3164 13.7626 26.8555 14.1344C27.4023 14.5116 28.0391 14.6947 28.7812 14.7002C29.6523 14.684 30.4883 14.5116 31.2891 14.1505L32.0234 14.1344L32.25 16.182C30.9805 16.8556 29.375 17.071 28.3984 17.028ZM69.4961 14.587L69.4961 1.58447L72.0039 2.7699L72.0039 14.2853C72.0078 14.9587 72.2891 15.1959 72.7578 15.2067L72.7578 17.0118C70.5156 17.3728 69.4961 16.4083 69.4961 14.587ZM86.7031 16.8771C86.3633 16.7047 86.0938 16.4838 85.8984 16.1981C85.7031 15.9233 85.5625 15.6216 85.4766 15.2982C85.3867 14.975 85.332 14.6678 85.3086 14.3607C85.2891 14.0535 85.2773 13.7949 85.2812 13.5686L85.2773 8.73499L84.1484 8.73499L84.1484 6.85449L85.2773 6.85449L85.2812 3.37341L87.7422 4.6991L87.7422 6.849L89.4336 6.849L89.4336 8.78357L87.7422 8.78357L87.7422 13.6763C87.7422 14.3661 87.8398 14.657 88.0156 14.9264C88.1992 15.1904 88.7891 15.406 89.4336 15.2336L89.4336 16.9525C89.3047 17.0118 89.1562 17.0496 89.0039 17.0764C88.7188 17.1141 88.3906 17.1357 88.0234 17.1357C87.4922 17.1357 87.0547 17.0442 86.7031 16.8771ZM57.0859 16.8771C56.7461 16.7047 56.4766 16.4838 56.2812 16.1981C56.0859 15.9233 55.9453 15.6216 55.8594 15.2982C55.7656 14.975 55.7109 14.6678 55.6914 14.3607C55.668 14.0535 55.6602 13.7949 55.6641 13.5686L55.6602 8.73499L54.5273 8.73499L54.5273 6.85449L55.6602 6.85449L55.668 3.36804L58.1289 4.6936L58.1289 6.84363L59.8203 6.84363L59.8203 8.7782L58.1289 8.7782L58.1289 13.6709C58.1289 14.3607 58.2266 14.6516 58.4062 14.921C58.5859 15.1851 59.1758 15.4006 59.8203 15.2283L59.8203 16.9471C59.6914 17.0065 59.543 17.0442 59.3945 17.071C59.1055 17.1088 58.7773 17.1304 58.4102 17.1304C57.875 17.1357 57.4375 17.0442 57.0859 16.8771ZM37.7305 15.9557L37.6992 15.9827C37.4453 16.3813 36.7461 17.0172 35.3984 17.0172C34.8633 17.0118 34.4062 16.8717 34.0195 16.6077C33.6328 16.3383 33.3359 15.9772 33.125 15.53C32.9219 15.0774 32.8125 14.5815 32.8125 14.0374C32.8125 13.4015 32.9297 12.8411 33.1602 12.3777C33.3906 11.9034 33.7109 11.5155 34.1367 11.2084C34.5547 10.8959 35.0508 10.6642 35.625 10.5187C36.1953 10.3678 36.8281 10.2924 37.5078 10.2924C37.5156 9.96362 37.4727 9.66724 37.3906 9.4032C37.3047 9.1499 37.1484 8.93982 36.9219 8.78894C36.6992 8.63806 36.375 8.55725 35.9648 8.55725C35.5625 8.55725 35.1875 8.62183 34.8242 8.74585C34.457 8.86975 34.1328 9.03137 33.8516 9.23083L33.418 7.51184C33.6055 7.38257 33.8516 7.25317 34.1406 7.11853C34.4414 6.99451 34.7734 6.88672 35.1523 6.80054C35.5391 6.71436 35.9492 6.67664 36.3945 6.67126C37.0664 6.67664 37.6133 6.78979 38.0547 7.01074C38.5 7.23169 38.8438 7.53882 39.0977 7.92676C39.3594 8.3147 39.5352 8.75659 39.6445 9.24695C39.7539 9.74268 39.8008 10.2654 39.8008 10.8151L39.8008 14.3175C39.8008 14.7594 40.043 15.2283 40.6836 15.2659L40.6836 17.1141C39.2969 17.4591 38.2969 17.098 37.7305 15.9557ZM44.207 19.9863L41.7891 18.8547L41.7891 10.1091C41.7891 9.47327 41.7852 8.88586 41.7695 8.34705C41.7578 7.8136 41.7891 7.15625 41.7695 6.70361L43.6328 6.70361C43.7422 6.91907 43.8242 7.14539 43.8711 7.3717C44.5352 6.86523 45.3398 6.60657 46.2969 6.61731C47.2852 6.61731 47.9297 6.87061 48.4492 7.29626C48.9688 7.71118 49.3711 8.29858 49.6719 9.05835C49.9688 9.81812 50.1172 10.7019 50.125 11.7257C50.1172 12.6364 50.0117 13.4231 49.8008 14.0858C49.5898 14.7487 49.3047 15.2875 48.9531 15.7185C48.5938 16.1443 48.1953 16.4622 47.7578 16.667C47.3203 16.8717 46.8594 16.9741 46.3945 16.9741C45.5469 17.001 44.8047 16.7802 44.207 16.2843L44.207 19.9863Z" fill="#8EA652" fill-opacity="1.000000" fill-rule="evenodd"/>
	<path id="Vector" d="M25.332 23.0736C25.332 23.5209 25.2227 23.882 25.0078 24.1567C24.793 24.4315 24.4961 24.5663 24.1211 24.5663C23.9258 24.5663 23.7578 24.5339 23.6172 24.4692C23.4727 24.4045 23.3477 24.3076 23.25 24.1782L23.25 25.6979L22.6836 25.6979L22.6836 21.4032L23.1172 21.4032L23.207 21.8019C23.3125 21.651 23.4336 21.5378 23.5859 21.4624C23.7383 21.3816 23.9141 21.3439 24.1172 21.3439C24.5 21.3439 24.8008 21.4948 25.0117 21.8019C25.2305 22.1091 25.332 22.5132 25.332 23.0144L25.332 23.0736ZM24.7656 23.0144C24.7656 22.6641 24.6953 22.3732 24.5547 22.1469C24.4141 21.9205 24.207 21.8074 23.9375 21.8074C23.7734 21.8074 23.6367 21.8451 23.5195 21.9205C23.4062 21.996 23.3125 22.0929 23.2422 22.2223L23.2422 23.7202C23.3125 23.8496 23.4023 23.9465 23.5195 24.022C23.6367 24.092 23.7734 24.1298 23.9414 24.1298C24.2148 24.1298 24.4141 24.0328 24.5547 23.8387C24.6953 23.6394 24.7578 23.3916 24.7578 23.079L24.7578 23.0144L24.7656 23.0144ZM27.9375 24.507C27.9219 24.4154 27.9062 24.3291 27.8945 24.2592C27.8828 24.1891 27.8789 24.1136 27.8789 24.0436C27.7695 24.1945 27.6328 24.3184 27.4648 24.4208C27.3008 24.5232 27.1172 24.5717 26.9219 24.5717C26.5977 24.5717 26.3477 24.4908 26.1797 24.3237C26.0117 24.1567 25.9258 23.9304 25.9258 23.6394C25.9258 23.343 26.0469 23.1113 26.2891 22.9443C26.5312 22.7772 26.8555 22.691 27.2656 22.691L27.8828 22.691L27.8828 22.3839C27.8828 22.2007 27.8281 22.0605 27.7148 21.9528C27.6016 21.8451 27.4453 21.7911 27.2461 21.7911C27.0625 21.7911 26.9141 21.8396 26.8008 21.9313C26.6875 22.0228 26.6289 22.136 26.6289 22.2654L26.0898 22.2654L26.082 22.2491C26.0742 22.0228 26.1797 21.8181 26.4023 21.6295C26.6289 21.4409 26.9219 21.3492 27.2773 21.3492C27.6289 21.3492 27.9141 21.4409 28.125 21.6188C28.3438 21.7965 28.4492 22.0552 28.4492 22.3947L28.4492 23.8873C28.4492 24.0005 28.457 24.1028 28.4688 24.2106C28.4766 24.313 28.5 24.4154 28.5312 24.5123L27.9375 24.5123L27.9375 24.507ZM26.9961 24.0974C27.2031 24.0974 27.3867 24.0436 27.5547 23.9412C27.7188 23.8334 27.8242 23.7148 27.8789 23.5802L27.8789 23.0736L27.2383 23.0736C27.0117 23.0736 26.8281 23.1329 26.6953 23.2461C26.5586 23.3593 26.4883 23.4939 26.4883 23.6501C26.4883 23.7903 26.5312 23.8981 26.6172 23.9789C26.7031 24.0543 26.8281 24.0974 26.9961 24.0974ZM30.2188 23.3593L30.3203 23.7472L30.3359 23.7472L31.1055 21.4032L31.7383 21.4032L30.4297 24.9812C30.3477 25.1913 30.2383 25.3691 30.0898 25.5254C29.9414 25.6816 29.7422 25.7571 29.4922 25.7571C29.4492 25.7571 29.3906 25.7517 29.3203 25.741C29.25 25.7301 29.1953 25.7194 29.1602 25.7086L29.2188 25.2667C29.207 25.2667 29.2383 25.2667 29.3203 25.2721C29.4023 25.2776 29.4492 25.283 29.4727 25.283C29.5898 25.283 29.6953 25.229 29.7695 25.1212C29.8438 25.0134 29.9102 24.8949 29.9648 24.7656L30.0977 24.4423L28.9414 21.4032L29.5742 21.4032L30.2188 23.3593ZM32.7344 21.4032L32.7734 21.8127C32.875 21.6672 33.0078 21.5487 33.1641 21.4679C33.3203 21.387 33.5 21.3439 33.7109 21.3439C33.9141 21.3439 34.0938 21.3925 34.2461 21.4894C34.3945 21.5864 34.5039 21.7319 34.5781 21.9205C34.6758 21.7427 34.8047 21.6079 34.9688 21.5001C35.1289 21.3978 35.3203 21.3439 35.5312 21.3439C35.8477 21.3439 36.0977 21.4517 36.2812 21.6672C36.4648 21.8828 36.5586 22.2114 36.5586 22.6479L36.5586 24.5016L35.9883 24.5016L35.9883 22.6426C35.9883 22.3354 35.9375 22.1199 35.832 21.996C35.7266 21.8666 35.5664 21.8074 35.3633 21.8074C35.168 21.8074 35.0117 21.8719 34.8945 22.0067C34.7734 22.1414 34.7031 22.3085 34.6836 22.5132L34.6836 22.5348L34.6836 24.507L34.1133 24.507L34.1133 22.6479C34.1133 22.3569 34.0586 22.1469 33.9531 22.0121C33.8438 21.8773 33.6875 21.8074 33.4805 21.8074C33.3086 21.8074 33.168 21.8451 33.0547 21.915C32.9414 21.9851 32.8594 22.0875 32.8008 22.2114L32.8008 24.507L32.2344 24.507L32.2344 21.4032L32.7344 21.4032ZM38.6719 24.5663C38.2383 24.5663 37.8906 24.4208 37.6406 24.1351C37.3828 23.8496 37.2539 23.4724 37.2539 23.0144L37.2539 22.8904C37.2539 22.4486 37.3828 22.0822 37.6484 21.7858C37.9141 21.4894 38.2227 21.3439 38.5859 21.3439C39.0078 21.3439 39.3203 21.4679 39.5352 21.7211C39.75 21.9744 39.8594 22.3085 39.8594 22.7288L39.8594 23.079L37.8438 23.079L37.832 23.0952C37.8398 23.3916 37.9141 23.6394 38.0586 23.828C38.207 24.022 38.4102 24.119 38.6719 24.119C38.8672 24.119 39.0312 24.092 39.1797 24.0382C39.3242 23.9843 39.4492 23.9088 39.5508 23.8119L39.7734 24.1782C39.6602 24.286 39.5156 24.3777 39.3359 24.4531C39.1484 24.5339 38.9258 24.5663 38.6719 24.5663ZM38.5859 21.7911C38.3945 21.7911 38.2344 21.8719 38.0977 22.0337C37.9609 22.1953 37.8828 22.3947 37.8477 22.6372L37.8555 22.6533L39.293 22.6533L39.293 22.5779C39.293 22.3569 39.2344 22.1683 39.1133 22.0228C38.9883 21.8666 38.8164 21.7911 38.5859 21.7911ZM41 21.4032L41.0391 21.8666C41.1406 21.6996 41.2695 21.5756 41.4258 21.484C41.5859 21.3925 41.7617 21.3492 41.9609 21.3492C42.2969 21.3492 42.5586 21.4463 42.7422 21.6403C42.9258 21.8396 43.0156 22.1414 43.0156 22.5509L43.0156 24.507L42.4492 24.507L42.4492 22.5618C42.4492 22.2869 42.3945 22.0929 42.2852 21.9797C42.1797 21.8666 42.0117 21.8074 41.7891 21.8074C41.6289 21.8074 41.4805 21.8451 41.3555 21.9259C41.2344 22.0067 41.1289 22.1145 41.0547 22.2491L41.0547 24.5123L40.4883 24.5123L40.4883 21.4086L41 21.4086L41 21.4032ZM44.5898 20.6542L44.5898 21.4032L45.1797 21.4032L45.1797 21.8235L44.5898 21.8235L44.5898 23.7095C44.5898 23.855 44.6172 23.9574 44.6797 24.0166C44.7383 24.0759 44.8203 24.1083 44.9258 24.1083C44.957 24.1083 44.9961 24.1028 45.0312 24.0974C45.0703 24.092 45.1094 24.0813 45.1328 24.0706L45.2109 24.4585C45.168 24.4908 45.1094 24.5232 45.0273 24.5447C44.9453 24.5663 44.8633 24.577 44.7773 24.577C44.5469 24.577 44.3672 24.507 44.2266 24.3668C44.0898 24.2268 44.0234 24.0112 44.0234 23.7148L44.0234 21.8289L43.5234 21.8289L43.5234 21.4086L44.0234 21.4086L44.0234 20.6595L44.5898 20.6595L44.5898 20.6542ZM48.5625 23.6825C48.5625 23.5586 48.5117 23.4562 48.4219 23.3754C48.3242 23.2946 48.1445 23.2245 47.8789 23.1653C47.5039 23.0844 47.2227 22.9712 47.0273 22.8312C46.8359 22.691 46.7383 22.4971 46.7383 22.2545C46.7383 22.0013 46.8477 21.7858 47.0625 21.6079C47.2812 21.4302 47.5625 21.3385 47.9023 21.3385C48.2656 21.3385 48.5508 21.4302 48.7656 21.6188C48.9844 21.8074 49.0781 22.0282 49.0742 22.2977L49.0703 22.3138L48.5273 22.3138C48.5273 22.1791 48.4688 22.0552 48.3555 21.9474C48.2422 21.8396 48.0898 21.7858 47.9023 21.7858C47.7031 21.7858 47.5508 21.8289 47.4531 21.9205C47.3555 22.0067 47.3086 22.1145 47.3086 22.2384C47.3086 22.3623 47.3516 22.4594 47.4375 22.5294C47.5234 22.5995 47.7031 22.6641 47.9609 22.718C48.3555 22.8042 48.6484 22.9174 48.8359 23.0629C49.0273 23.2084 49.125 23.4023 49.125 23.6448C49.125 23.9197 49.0117 24.1405 48.7891 24.313C48.5664 24.4855 48.2734 24.5663 47.9141 24.5663C47.5195 24.5663 47.2031 24.4639 46.9766 24.2645C46.75 24.0651 46.6406 23.828 46.6523 23.564L46.6602 23.5479L47.1992 23.5479C47.2109 23.7472 47.2852 23.8927 47.4219 23.9896C47.5625 24.0813 47.7227 24.1298 47.9141 24.1298C48.1133 24.1298 48.2695 24.0867 48.3867 24.0059C48.5078 23.925 48.5625 23.8173 48.5625 23.6825ZM50.7891 23.3593L50.8906 23.7472L50.9062 23.7472L51.6758 21.4032L52.3086 21.4032L51 24.9812C50.918 25.1913 50.8086 25.3691 50.6602 25.5254C50.5117 25.6816 50.3125 25.7571 50.0625 25.7571C50.0195 25.7571 49.9609 25.7517 49.8906 25.741C49.8203 25.7301 49.7656 25.7194 49.7305 25.7086L49.7891 25.2667C49.7773 25.2667 49.8086 25.2667 49.8906 25.2721C49.9727 25.2776 50.0195 25.283 50.043 25.283C50.1602 25.283 50.2656 25.229 50.3398 25.1212C50.4141 25.0134 50.4805 24.8949 50.5352 24.7656L50.668 24.4423L49.5117 21.4032L50.1445 21.4032L50.7891 23.3593ZM54.6094 23.6825C54.6094 23.5586 54.5625 23.4562 54.4688 23.3754C54.3711 23.2946 54.1914 23.2245 53.9297 23.1653C53.5508 23.0844 53.2695 22.9712 53.0742 22.8312C52.8867 22.691 52.7891 22.4971 52.7891 22.2545C52.7891 22.0013 52.8945 21.7858 53.1133 21.6079C53.3281 21.4302 53.6094 21.3385 53.9492 21.3385C54.3125 21.3385 54.5977 21.4302 54.8164 21.6188C55.0312 21.8074 55.1289 22.0282 55.1211 22.2977L55.1172 22.3138L54.5781 22.3138C54.5781 22.1791 54.5195 22.0552 54.4023 21.9474C54.2891 21.8396 54.1406 21.7858 53.9492 21.7858C53.75 21.7858 53.5977 21.8289 53.5 21.9205C53.4023 22.0067 53.3555 22.1145 53.3555 22.2384C53.3555 22.3623 53.3984 22.4594 53.4844 22.5294C53.5703 22.5995 53.75 22.6641 54.0078 22.718C54.4023 22.8042 54.6953 22.9174 54.8828 23.0629C55.0742 23.2084 55.1719 23.4023 55.1719 23.6448C55.1719 23.9197 55.0586 24.1405 54.8359 24.313C54.6133 24.4855 54.3242 24.5663 53.9609 24.5663C53.5664 24.5663 53.2539 24.4639 53.0273 24.2645C52.7969 24.0651 52.6914 23.828 52.7031 23.564L52.707 23.5479L53.2461 23.5479C53.2578 23.7472 53.332 23.8927 53.4688 23.9896C53.6094 24.0813 53.7734 24.1298 53.9609 24.1298C54.1602 24.1298 54.3164 24.0867 54.4375 24.0059C54.5508 23.925 54.6094 23.8173 54.6094 23.6825ZM56.625 20.6542L56.625 21.4032L57.2148 21.4032L57.2148 21.8235L56.625 21.8235L56.625 23.7095C56.625 23.855 56.6523 23.9574 56.7188 24.0166C56.7773 24.0759 56.8594 24.1083 56.9609 24.1083C56.9922 24.1083 57.0312 24.1028 57.0703 24.0974C57.1055 24.092 57.1445 24.0813 57.1719 24.0706L57.2461 24.4585C57.2031 24.4908 57.1445 24.5232 57.0625 24.5447C56.9805 24.5663 56.9023 24.577 56.8164 24.577C56.582 24.577 56.4023 24.507 56.2617 24.3668C56.1289 24.2268 56.0586 24.0112 56.0586 23.7148L56.0586 21.8289L55.5586 21.8289L55.5586 21.4086L56.0586 21.4086L56.0586 20.6595L56.625 20.6595L56.625 20.6542ZM59.2031 24.5663C58.7695 24.5663 58.4258 24.4208 58.1719 24.1351C57.918 23.8496 57.7891 23.4724 57.7891 23.0144L57.7891 22.8904C57.7891 22.4486 57.918 22.0822 58.1836 21.7858C58.4453 21.4894 58.7539 21.3439 59.1172 21.3439C59.5391 21.3439 59.8516 21.4679 60.0664 21.7211C60.2852 21.9744 60.3906 22.3085 60.3906 22.7288L60.3906 23.079L58.375 23.079L58.3672 23.0952C58.3711 23.3916 58.4453 23.6394 58.5938 23.828C58.7383 24.022 58.9453 24.119 59.2031 24.119C59.3984 24.119 59.5664 24.092 59.7109 24.0382C59.8555 23.9843 59.9805 23.9088 60.0859 23.8119L60.3047 24.1782C60.1914 24.286 60.0469 24.3777 59.8672 24.4531C59.6836 24.5339 59.4609 24.5663 59.2031 24.5663ZM59.1172 21.7911C58.9258 21.7911 58.7656 21.8719 58.6289 22.0337C58.4961 22.1953 58.4141 22.3947 58.3828 22.6372L58.3867 22.6533L59.8242 22.6533L59.8242 22.5779C59.8242 22.3569 59.7656 22.1683 59.6484 22.0228C59.5273 21.8666 59.3555 21.7911 59.1172 21.7911ZM61.5391 21.4032L61.5742 21.8127C61.6797 21.6672 61.8086 21.5487 61.9648 21.4679C62.1211 21.387 62.3008 21.3439 62.5117 21.3439C62.7148 21.3439 62.8945 21.3925 63.0469 21.4894C63.1992 21.5864 63.3047 21.7319 63.3828 21.9205C63.4766 21.7427 63.6094 21.6079 63.7695 21.5001C63.9336 21.3978 64.1211 21.3439 64.332 21.3439C64.6523 21.3439 64.8984 21.4517 65.082 21.6672C65.2656 21.8828 65.3594 22.2114 65.3594 22.6479L65.3594 24.5016L64.793 24.5016L64.793 22.6426C64.793 22.3354 64.7383 22.1199 64.6367 21.996C64.5273 21.8666 64.3711 21.8074 64.1641 21.8074C63.9688 21.8074 63.8125 21.8719 63.6953 22.0067C63.5742 22.1414 63.5039 22.3085 63.4844 22.5132L63.4844 22.5348L63.4844 24.507L62.918 24.507L62.918 22.6479C62.918 22.3569 62.8633 22.1469 62.7539 22.0121C62.6445 21.8773 62.4883 21.8074 62.2852 21.8074C62.1094 21.8074 61.9688 21.8451 61.8555 21.915C61.7422 21.9851 61.6641 22.0875 61.6016 22.2114L61.6016 24.507L61.0352 24.507L61.0352 21.4032L61.5391 21.4032Z" fill="#FFFFFF" fill-opacity="1.000000" fill-rule="nonzero"/>
</svg>
