<svg width="230.000000" height="28.000000" id="logo" viewBox="0 0 230 28" fill="none" xmlns="http://www.w3.org/2000/svg" xmlns:xlink="http://www.w3.org/1999/xlink">
	<desc>
			Created with Pixso.
	</desc>
	<defs>
		<clipPath id="clip187_2285">
			<rect id="Frame 1" width="230.000000" height="28.000000" fill="white" fill-opacity="0"/>
		</clipPath>
	</defs>
	<rect id="Frame 1" width="230.000000" height="28.000000" fill="#FFFFFF" fill-opacity="0"/>
	<g clip-path="url(#clip187_2285)">
		<path id="Vector" d="M30.4414 1.23999C29.8672 1.24524 29.3242 1.47656 28.9219 1.88324C28.5195 2.28986 28.2969 2.83881 28.3008 3.40997L28.3008 22.48L18.8711 22.48L18.8711 1.23999L16.3086 1.23999C15.7383 1.24524 15.1914 1.47656 14.793 1.88324C14.3906 2.28986 14.168 2.83881 14.1719 3.40997L14.1719 22.48L4.69922 22.48L4.69922 1.23999L2.14062 1.23999C1.85938 1.24127 1.57812 1.29822 1.31641 1.40747C1.05859 1.51672 0.820312 1.67621 0.621094 1.87677C0.425781 2.07733 0.265625 2.31506 0.160156 2.57648C0.0546875 2.83783 0 3.11761 0 3.39996L0 27.23L31 27.23C31.5312 27.23 32.0391 27.0193 32.4141 26.6442C32.7891 26.2691 33 25.7604 33 25.23L33 1.22998L30.4414 1.23999ZM56.9414 6.07001L48.5312 25.85C48.3555 26.2607 48.0664 26.6114 47.6953 26.8585C47.3203 27.1055 46.8867 27.2382 46.4414 27.24L43 27.24L54.6211 1.23999L59.3398 1.23999L71 27.24L67.4805 27.24C67.0352 27.2403 66.5977 27.1097 66.2266 26.8643C65.8555 26.6189 65.5664 26.2697 65.3906 25.86L56.9414 6.07001ZM90 16.36L85.8281 20.59L85.8281 27.24L81 27.24L81 1.23999L85.8711 1.23999L85.8711 14.57L98.8711 1.23999L104.34 1.23999L93.3398 12.87L105 27.24L100.648 27.24C100.23 27.2435 99.8125 27.156 99.4297 26.9833C99.0469 26.8107 98.707 26.5571 98.4297 26.24L90 16.36ZM116 1.23999L133.32 1.23999C133.891 1.23999 134.438 1.46649 134.84 1.86969C135.242 2.27289 135.469 2.81976 135.469 3.38995L135.469 5.28998L118.148 5.28998C117.867 5.28998 117.59 5.23438 117.328 5.12634C117.066 5.01825 116.828 4.85992 116.629 4.66028C116.43 4.46063 116.273 4.22357 116.164 3.96277C116.055 3.7019 116 3.4223 116 3.13995L116 1.23999ZM116 23.19L133.852 23.19C134.422 23.19 134.969 23.4165 135.371 23.8197C135.773 24.2229 136 24.7698 136 25.34L136 27.24L118.148 27.24C117.582 27.2374 117.039 27.0114 116.637 26.6109C116.234 26.2104 116.004 25.6676 116 25.1L116 23.2L116 23.19Z" fill="#FFFFFF" fill-opacity="1.000000" fill-rule="nonzero"/>
		<path id="Vector" d="M116 12L131.68 12C131.961 12 132.242 12.0556 132.504 12.1637C132.766 12.2717 133 12.4301 133.199 12.6297C133.398 12.8294 133.559 13.0664 133.664 13.3272C133.773 13.5881 133.828 13.8677 133.828 14.15L133.828 16L118.148 16C117.586 16.0001 117.043 15.7777 116.641 15.3809C116.238 14.9842 116.008 14.445 116 13.88L116 12Z" fill="#34BBDA" fill-opacity="1.000000" fill-rule="nonzero"/>
		<path id="Vector" d="M146 14.2299C146 6.67993 151.641 1.22992 159.23 1.22992C161.07 1.16168 162.902 1.50616 164.594 2.2381C166.285 2.96997 167.789 4.0708 169 5.4599L167.398 6.99988C167.055 7.33392 166.602 7.53284 166.121 7.56036C165.645 7.58789 165.172 7.4422 164.789 7.1499C163.477 6.15302 161.91 5.54346 160.27 5.39032C158.629 5.23712 156.977 5.54645 155.504 6.2832C154.027 7.01996 152.789 8.15479 151.926 9.5592C151.062 10.9636 150.609 12.5816 150.621 14.2299C150.527 16.493 151.34 18.7002 152.871 20.3669C154.406 22.0336 156.535 23.0238 158.801 23.1199L159.441 23.1199C161.375 23.1498 163.262 22.5105 164.781 21.3099C165.16 21.0121 165.641 20.8632 166.121 20.8908C166.605 20.9183 167.062 21.1206 167.41 21.4599L169 22.9999C167.781 24.3875 166.27 25.4862 164.57 26.2161C162.875 26.9461 161.035 27.289 159.191 27.2199C151.641 27.2299 146 21.7799 146 14.2299Z" fill="#FFFFFF" fill-opacity="1.000000" fill-rule="nonzero"/>
		<path id="Vector" d="M206.09 12.4C206.09 13.66 205.301 14.4 203.77 14.4L201.77 14.4L201.77 10.4L203.77 10.4C205.301 10.41 206.09 11.14 206.09 12.4ZM193.852 10.56L191.77 10.56L191.77 14.56L193.852 14.56C195.41 14.56 196.211 13.83 196.211 12.56C196.211 11.29 195.41 10.56 193.852 10.56ZM230 10L230 26.5C230 26.8978 229.844 27.2794 229.562 27.5607C229.277 27.842 228.898 28 228.5 28L190 28C187.348 28 184.805 26.9464 182.93 25.0711C181.055 23.1957 180 20.6522 180 18L180 1.5C180 1.10217 180.156 0.720642 180.438 0.439331C180.723 0.15802 181.102 0 181.5 0L220 0C222.652 0 225.195 1.05359 227.07 2.92896C228.945 4.80432 230 7.34784 230 10ZM198 12.55C198 10.33 196.441 8.98999 193.93 8.98999L190 8.98999L190 19L191.77 19L191.77 16.1L193.93 16.1C196.441 16.1 198 14.75 198 12.55ZM208 18.84L205.852 15.56C206.473 15.307 206.996 14.8666 207.355 14.3001C207.715 13.7336 207.887 13.0694 207.852 12.4C207.852 10.19 206.32 8.84003 203.852 8.84003L200 8.84003L200 18.84L201.738 18.84L201.738 15.93L204.211 15.93L206.129 18.86L208 18.84ZM220 13.84C220 12.7918 219.688 11.7671 219.105 10.8955C218.523 10.0239 217.695 9.3446 216.727 8.94342C215.762 8.5423 214.695 8.43732 213.664 8.64185C212.637 8.84631 211.695 9.35114 210.953 10.0923C210.211 10.8336 209.707 11.7779 209.504 12.806C209.297 13.8341 209.402 14.8998 209.805 15.8682C210.203 16.8367 210.883 17.6644 211.754 18.2468C212.629 18.8292 213.652 19.14 214.699 19.14C216.105 19.14 217.453 18.5816 218.449 17.5877C219.441 16.5937 220 15.2456 220 13.84ZM214.699 10.22C214.246 10.2174 213.801 10.3037 213.383 10.4742C212.965 10.6446 212.582 10.8958 212.262 11.2134C211.941 11.531 211.684 11.9087 211.508 12.3251C211.336 12.7414 211.242 13.1883 211.238 13.64C211.234 13.7066 211.234 13.7734 211.238 13.84C211.238 14.7576 211.605 15.6377 212.254 16.2866C212.902 16.9355 213.781 17.3 214.699 17.3C215.617 17.3 216.496 16.9355 217.148 16.2866C217.797 15.6377 218.16 14.7576 218.16 13.84C218.184 13.3881 218.117 12.9359 217.969 12.5092C217.816 12.0825 217.586 11.6898 217.281 11.3535C216.977 11.0172 216.613 10.744 216.203 10.5495C215.797 10.355 215.352 10.243 214.898 10.22L214.699 10.22Z" fill="#34BBDA" fill-opacity="1.000000" fill-rule="nonzero"/>
	</g>
</svg>
