<svg width="32.000000" height="32.000000" id="promo-4" viewBox="0 0 32 32" fill="none" xmlns="http://www.w3.org/2000/svg" xmlns:xlink="http://www.w3.org/1999/xlink">
	<desc>
			Created with Pixso.
	</desc>
	<defs>
		<clipPath id="clip187_2348">
			<rect id="gear 1" width="32.000000" height="32.000000" fill="white" fill-opacity="0"/>
		</clipPath>
	</defs>
	<rect id="gear 1" width="32.000000" height="32.000000" fill="#FFFFFF" fill-opacity="0"/>
	<g clip-path="url(#clip187_2348)">
		<path id="Vector" d="M30.2695 16C30.2695 14.7669 30.1133 13.547 29.8047 12.3649L31.6094 11.0361L28.1016 4.96387L26.0469 5.86512C24.2891 4.119 22.1328 2.87469 19.7539 2.22887L19.5039 0L12.4922 0L12.2461 2.22887C9.86719 2.87469 7.71094 4.119 5.95312 5.86512L3.89453 4.96387L0.390625 11.0361L2.19531 12.3649C1.88672 13.547 1.73047 14.7669 1.73047 16C1.73047 17.2331 1.88672 18.453 2.19531 19.6351L0.390625 20.9639L3.89453 27.0361L5.95312 26.1348C7.71094 27.881 9.86719 29.1253 12.2461 29.7711L12.4922 32L19.5039 32L19.7539 29.7711C22.1328 29.1253 24.2891 27.8809 26.0469 26.1348L28.1016 27.0361L31.6094 20.9639L29.8047 19.6351C30.1133 18.453 30.2695 17.2331 30.2695 16ZM18.6914 28.1021L18.0352 28.2471L17.8281 30.125L14.1719 30.125L13.9648 28.2471L13.3086 28.1021C10.8242 27.5524 8.59766 26.2653 6.86719 24.3799L6.41406 23.8862L4.67969 24.6452L2.85547 21.4798L4.375 20.3614L4.17188 19.7221C3.79688 18.5217 3.60547 17.2694 3.60547 16C3.60547 14.7306 3.79688 13.4782 4.17188 12.2779L4.375 11.6386L2.85547 10.5202L4.67969 7.35481L6.41406 8.11375L6.86719 7.62012C8.59766 5.73475 10.8242 4.44762 13.3086 3.89794L13.9648 3.75294L14.1719 1.875L17.8281 1.875L18.0352 3.75294L18.6914 3.89794C21.1758 4.44769 23.4023 5.73481 25.1328 7.62012L25.5859 8.11375L27.3203 7.35481L29.1445 10.5202L27.625 11.6386L27.8281 12.2779C28.2031 13.4783 28.3945 14.7306 28.3945 16C28.3945 17.2694 28.2031 18.5217 27.8281 19.7221L27.625 20.3614L29.1445 21.4798L27.3203 24.6452L25.5859 23.8862L25.1328 24.3799C23.4023 26.2653 21.1758 27.5524 18.6914 28.1021Z" fill="#FFFFFF" fill-opacity="1.000000" fill-rule="nonzero"/>
		<path id="Vector" d="M12.2773 13.8537L10.9375 12.5419L7.50781 16.0431L11.0078 19.472L12.3203 18.1324L10.1602 16.0154L12.2773 13.8537Z" fill="#FFFFFF" fill-opacity="1.000000" fill-rule="nonzero"/>
		<path id="Vector" d="M19.7227 13.8537L21.8398 16.0154L19.6797 18.1324L20.9922 19.472L24.4922 16.0431L21.0625 12.5419L19.7227 13.8537Z" fill="#FFFFFF" fill-opacity="1.000000" fill-rule="nonzero"/>
		<path id="Vector" d="M13.7578 22.136L16.4258 9.46351L18.2617 9.84977L15.5938 22.5223L13.7578 22.136Z" fill="#FFFFFF" fill-opacity="1.000000" fill-rule="nonzero"/>
	</g>
</svg>
