<svg width="31.000000" height="31.000000" id="promo-1" viewBox="0 0 31 31" fill="none" xmlns="http://www.w3.org/2000/svg" xmlns:xlink="http://www.w3.org/1999/xlink">
	<desc>
			Created with Pixso.
	</desc>
	<defs>
		<clipPath id="clip187_2295">
			<rect id="australia (2) 1" width="31.000000" height="31.000000" fill="white" fill-opacity="0"/>
		</clipPath>
	</defs>
	<rect id="australia (2) 1" width="31.000000" height="31.000000" fill="#FFFFFF" fill-opacity="0"/>
	<g clip-path="url(#clip187_2295)">
		<path id="Vector" d="M15.5 0C6.94141 0 0 6.93958 0 15.5C0 24.0604 6.94141 31 15.5 31C24.0586 31 31 24.0604 31 15.5C30.9922 6.94352 24.0547 0.00944519 15.5 0ZM15.5 29.8552C7.57031 29.8552 1.14453 23.4282 1.14453 15.5C1.14453 7.57185 7.57031 1.14476 15.5 1.14476C23.4297 1.14476 29.8555 7.57185 29.8555 15.5C29.8477 23.4243 23.4258 29.8458 15.5 29.8552Z" fill="#FFFFFF" fill-opacity="1.000000" fill-rule="nonzero"/>
		<path id="Vector" d="M18.332 17.4918C18.0352 17.0725 17.6836 16.6985 17.2773 16.3814C16.707 15.8949 16.3125 15.5687 15.9844 12.6953C15.8477 11.4933 15.5859 10.2684 14.6758 10.2684C13.7656 10.2684 13.207 11.5735 12.8125 12.6839C12.7656 12.7674 12.7109 12.8444 12.6406 12.9128C12.5078 12.7419 12.4023 12.5481 12.332 12.3404L12.2148 12.0543L11.9102 11.997C11.6992 11.9608 11.4883 11.9436 11.2734 11.9455C10.2422 11.926 9.26172 12.395 8.62891 13.2105C8.44922 13.3227 8.23438 13.3748 8.02344 13.3593C7.92969 13.3217 7.83203 13.3023 7.73047 13.302C7.16016 13.302 6.97656 13.8286 6.84375 14.1721C6.61328 14.7444 6.47656 14.9619 6.09375 14.9619C5.19922 14.9267 4.34375 15.3332 3.80469 16.0495C3.36328 16.741 3.28906 17.6075 3.61719 18.3619L3.74219 18.6881C4.20312 19.7017 4.44922 20.798 4.47266 21.9106C4.44922 22.6657 5.03906 23.2986 5.79688 23.3244C5.82422 23.3255 5.85547 23.3255 5.88672 23.3244C7.03125 23.3244 8.52734 22.2598 9.41797 21.2066C9.63672 20.9052 9.97656 20.7178 10.3477 20.6972C10.918 20.7711 11.4258 21.0993 11.7266 21.5901C12.0547 22.2884 13.957 23.6621 15.4805 23.6621C15.8359 23.6662 16.1875 23.5877 16.5039 23.4331C17.6328 22.7636 18.4414 21.6646 18.7422 20.3881C19.0352 19.4089 18.8867 18.3504 18.332 17.4918ZM17.6289 20.079L17.6211 20.1019C17.3945 21.0496 16.8047 21.8709 15.9805 22.3914C15.8164 22.4672 15.6406 22.5044 15.4648 22.5002C14.418 22.3669 13.4531 21.8657 12.7461 21.0864C12.2578 20.2026 11.3555 19.6255 10.3477 19.5524C9.64062 19.5696 8.97656 19.9089 8.55078 20.4739C7.65234 21.5328 6.47266 22.1911 5.89453 22.1911C5.75 22.1911 5.64844 22.1911 5.625 21.8476C5.58984 20.6195 5.31641 19.4099 4.81641 18.2875L4.69141 17.9612C4.49219 17.5514 4.51562 17.0695 4.75 16.6791C5.07812 16.2839 5.57422 16.0709 6.08984 16.1067C6.96875 16.0635 7.71094 15.4381 7.90234 14.5784L7.90234 14.504C8.40234 14.5196 8.89453 14.3817 9.3125 14.1091L9.39844 14.0518L9.46094 13.966C9.88281 13.4059 10.5586 13.0943 11.2578 13.136L11.3945 13.136C11.5938 13.6637 12.0742 14.0335 12.6367 14.0919C13.3711 14.0919 13.7812 13.3078 13.8555 13.1532L13.8555 13.096C14.0352 12.5647 14.2773 12.0573 14.5781 11.5849C14.6992 11.9911 14.7812 12.4094 14.8164 12.8327C15.1797 15.9979 15.6992 16.5818 16.5352 17.2629C16.8555 17.516 17.1367 17.815 17.3711 18.1501C17.7266 18.7272 17.8203 19.4286 17.6289 20.079Z" fill="#FFFFFF" fill-opacity="1.000000" fill-rule="nonzero"/>
		<path id="Vector" d="M13.4102 24.0857L13.3125 23.9025L13.1016 23.8224C12.8047 23.7188 12.4922 23.6646 12.1797 23.6621C11.7539 23.6513 11.3398 23.8145 11.0352 24.1143C10.7031 24.4936 10.5469 24.9934 10.6016 25.4937C10.6406 26.4954 11.2578 26.8503 11.7461 26.8503C12.3828 26.7984 12.957 26.4371 13.2773 25.883C13.6406 25.3507 13.6914 24.6651 13.4102 24.0857ZM12.3125 25.2705C12.1875 25.4844 11.9805 25.6391 11.7383 25.6998C11.707 25.6175 11.6914 25.5302 11.6914 25.4422C11.6641 25.2531 11.7031 25.0597 11.8086 24.8985C11.9062 24.8252 12.0273 24.7906 12.1523 24.8012C12.2383 24.7936 12.3281 24.7936 12.4141 24.8012C12.4297 24.9652 12.3906 25.1295 12.3047 25.2705L12.3125 25.2705Z" fill="#FFFFFF" fill-opacity="1.000000" fill-rule="nonzero"/>
		<path id="Vector" d="M18.7891 7.62983C18.5078 6.86285 17.4453 6.50797 16.7422 6.34198C16.6953 6.0002 16.5547 5.67745 16.3398 5.409C15.8242 4.76794 14.9102 4.43024 13.6094 4.41879C12.9141 3.81121 12.043 3.44389 11.125 3.37134C10.3398 3.37599 9.60938 3.76542 9.16797 4.41307C8.71484 4.88492 8.57812 5.58007 8.82422 6.18744C9.25391 7.08607 10.6094 7.3322 11.2812 7.40088C11.6875 8.15306 12.4414 8.65153 13.293 8.7288C13.6289 8.72515 13.957 8.64072 14.25 8.48267C14.7891 8.95775 15.8516 9.7648 16.9297 9.7648C17.4961 9.76924 18.0312 9.52419 18.3984 9.09512C18.8086 8.72651 18.9609 8.15227 18.7891 7.62983ZM17.5547 8.3453L17.5547 8.32813C17.4023 8.51251 17.1797 8.61804 16.9414 8.61432C16.1328 8.61432 15.082 7.70996 14.75 7.36081C14.5469 7.1539 14.2227 7.12936 13.9922 7.30358C13.8047 7.46957 13.5625 7.56816 13.3125 7.58404C12.6484 7.58404 12.168 6.61672 12.168 6.611C12.0742 6.41947 11.8867 6.2939 11.6758 6.28474C10.9414 6.2504 10.0195 6.00428 9.87891 5.71236C9.82422 5.59789 9.91016 5.37466 10.1055 5.13999C10.332 4.78633 10.7227 4.57104 11.1406 4.56761C11.8477 4.65697 12.5039 4.96992 13.0195 5.46052C13.1289 5.56204 13.2734 5.61749 13.4219 5.61506L13.5312 5.61506C14.4727 5.61506 15.1562 5.80967 15.4453 6.18744C15.5781 6.34749 15.6406 6.55369 15.6172 6.75982C15.5742 7.06146 15.7734 7.346 16.0703 7.4066C16.8086 7.50391 17.6211 7.81871 17.7031 8.03622C17.7305 8.05911 17.7188 8.15642 17.5547 8.3453Z" fill="#FFFFFF" fill-opacity="1.000000" fill-rule="nonzero"/>
		<path id="Vector" d="M26.8398 20.0504C26.5312 19.0945 26.0273 18.9056 25.6602 18.9056C25.1094 18.9836 24.6328 19.3344 24.3945 19.8386C23.9961 20.3262 23.5547 20.7764 23.0742 21.1837L22.0508 21.1837C21.7344 21.1821 21.4766 21.4371 21.4727 21.7532C21.4727 21.7733 21.4766 21.7934 21.4766 21.8133L21.5938 22.9237L20.5977 23.9254C20.4844 24.0362 20.4258 24.1871 20.4297 24.3432C20.4648 25.1834 21.1719 25.8375 22.0117 25.8041C22.0195 25.8037 22.0312 25.8033 22.0391 25.8028C22.332 25.7979 22.6211 25.7516 22.9023 25.6654C22.9688 25.6462 23.0312 25.6151 23.0859 25.5738C23.8281 25.0015 27.5039 22.0995 26.8398 20.0504ZM22.4805 24.6008C22.3359 24.6396 22.1875 24.6607 22.0391 24.6638C21.8789 24.6819 21.7227 24.6169 21.625 24.4921L22.5977 23.5133C22.7227 23.3917 22.7812 23.2213 22.7656 23.0497L22.6836 22.2998L23.293 22.2998C23.4297 22.2996 23.5664 22.2488 23.668 22.1567C24.2969 21.6401 24.8711 21.0609 25.3828 20.4282L25.375 20.411C25.4453 20.2976 25.5234 20.1921 25.6172 20.0962C25.6719 20.1959 25.7148 20.3015 25.7461 20.411C26.043 21.3325 24.0312 23.4274 22.4805 24.6008Z" fill="#FFFFFF" fill-opacity="1.000000" fill-rule="nonzero"/>
	</g>
</svg>
