<svg width="32.000000" height="32.000000" id="promo-2" viewBox="0 0 32 32" fill="none" xmlns="http://www.w3.org/2000/svg" xmlns:xlink="http://www.w3.org/1999/xlink">
	<desc>
			Created with Pixso.
	</desc>
	<defs>
		<clipPath id="clip187_2342">
			<rect id="gift 1" width="32.000000" height="32.000000" fill="white" fill-opacity="0"/>
		</clipPath>
	</defs>
	<rect id="gift 1" width="32.000000" height="32.000000" fill="#FFFFFF" fill-opacity="0"/>
	<g clip-path="url(#clip187_2342)">
		<path id="Gift" d="M27.668 8.00002L21.3281 8.00002C21.75 7.44202 22.0039 6.75069 22.0039 6.00002C22.0039 4.16202 20.5078 2.66669 18.668 2.66669C17.5781 2.66669 16.6094 3.19602 16.0039 4.00869C15.3945 3.19602 14.4258 2.66669 13.3359 2.66669C11.4961 2.66669 10.0039 4.16202 10.0039 6.00002C10.0039 6.75069 10.2539 7.44202 10.6758 8.00002L4.33594 8.00002C3.23438 8.00002 2.33594 8.89702 2.33594 10L2.33594 12.6667C2.33594 13.5357 2.89453 14.2747 3.66797 14.55L3.66797 27.3334C3.66797 28.4364 4.56641 29.3334 5.66797 29.3334L26.3359 29.3334C27.4375 29.3334 28.3359 28.4364 28.3359 27.3334L28.3359 14.55C29.1133 14.2747 29.668 13.5357 29.668 12.6667L29.668 10C29.668 8.89702 28.7734 8.00002 27.668 8.00002ZM14.0039 13.3334L14.0039 9.33335L18.0039 9.33335L18.0039 13.3334L14.0039 13.3334ZM18.0039 14.6667L18.0039 28L14.0039 28L14.0039 14.6667L18.0039 14.6667ZM18.668 4.00002C19.7734 4.00002 20.668 4.89702 20.668 6.00002C20.668 7.10302 19.7734 8.00002 18.668 8.00002L16.668 8.00002L16.668 6.00002C16.668 4.89702 17.5664 4.00002 18.668 4.00002ZM11.3359 6.00002C11.3359 4.89702 12.2344 4.00002 13.3359 4.00002C14.4375 4.00002 15.3359 4.89702 15.3359 6.00002L15.3359 8.00002L13.3359 8.00002C12.2344 8.00002 11.3359 7.10302 11.3359 6.00002ZM3.66797 10C3.66797 9.63235 3.96875 9.33335 4.33594 9.33335L12.668 9.33335L12.668 13.3334L4.33594 13.3334C3.96875 13.3334 3.66797 13.0344 3.66797 12.6667L3.66797 10ZM5.00391 27.3334L5.00391 14.6667L12.668 14.6667L12.668 28L5.66797 28C5.30078 28 5.00391 27.701 5.00391 27.3334ZM26.3359 28L19.3359 28L19.3359 14.6667L27.0039 14.6667L27.0039 27.3334C27.0039 27.701 26.7031 28 26.3359 28ZM28.3359 12.6667C28.3359 13.0344 28.0352 13.3334 27.668 13.3334L19.3359 13.3334L19.3359 9.33335L27.668 9.33335C28.0352 9.33335 28.3359 9.63235 28.3359 10L28.3359 12.6667Z" fill="#FFFFFF" fill-opacity="1.000000" fill-rule="nonzero"/>
	</g>
</svg>
