<svg width="30.000000" height="30.000000" id="promo-3" viewBox="0 0 30 30" fill="none" xmlns="http://www.w3.org/2000/svg" xmlns:xlink="http://www.w3.org/1999/xlink">
	<desc>
			Created with Pixso.
	</desc>
	<defs>
		<clipPath id="clip187_2315">
			<rect id="magnifying-glass (10) 1" width="30.000000" height="30.000000" fill="white" fill-opacity="0"/>
		</clipPath>
	</defs>
	<rect id="magnifying-glass (10) 1" width="30.000000" height="30.000000" fill="#FFFFFF" fill-opacity="0"/>
	<g clip-path="url(#clip187_2315)">
		<path id="Vector" d="M25.625 6.25C23.9023 6.25 22.5 4.84875 22.5 3.125C22.5 1.40125 23.9023 0 25.625 0C27.3477 0 28.75 1.40125 28.75 3.125C28.75 4.84875 27.3477 6.25 25.625 6.25ZM25.625 1.25C24.5898 1.25 23.75 2.09125 23.75 3.125C23.75 4.15875 24.5898 5 25.625 5C26.6602 5 27.5 4.15875 27.5 3.125C27.5 2.09125 26.6602 1.25 25.625 1.25Z" fill="#FFFFFF" fill-opacity="1.000000" fill-rule="nonzero"/>
		<path id="Vector" d="M29.375 7.49998C29.2148 7.49998 29.0547 7.43873 28.9336 7.31748L27.0586 5.44248C26.8125 5.19873 26.8125 4.80248 27.0586 4.55873C27.3008 4.31498 27.6992 4.31498 27.9414 4.55873L29.8164 6.43373C30.0586 6.67748 30.0586 7.07373 29.8164 7.31748C29.6953 7.43873 29.5352 7.49998 29.375 7.49998Z" fill="#FFFFFF" fill-opacity="1.000000" fill-rule="nonzero"/>
		<path id="Vector" d="M18.125 7.5L1.875 7.5C0.839844 7.5 0 6.65875 0 5.625L0 1.875C0 0.841249 0.839844 0 1.875 0L18.125 0C19.1602 0 20 0.841249 20 1.875L20 5.625C20 6.65875 19.1602 7.5 18.125 7.5ZM1.875 1.25C1.53125 1.25 1.25 1.53125 1.25 1.875L1.25 5.625C1.25 5.96875 1.53125 6.25 1.875 6.25L18.125 6.25C18.4688 6.25 18.75 5.96875 18.75 5.625L18.75 1.875C18.75 1.53125 18.4688 1.25 18.125 1.25L1.875 1.25Z" fill="#FFFFFF" fill-opacity="1.000000" fill-rule="nonzero"/>
		<path id="Vector" d="M3.75 30C1.68359 30 0 28.3175 0 26.25C0 24.1825 1.68359 22.5 3.75 22.5C5.81641 22.5 7.5 24.1825 7.5 26.25C7.5 28.3175 5.81641 30 3.75 30ZM3.75 23.75C2.37109 23.75 1.25 24.8713 1.25 26.25C1.25 27.6287 2.37109 28.75 3.75 28.75C5.12891 28.75 6.25 27.6287 6.25 26.25C6.25 24.8713 5.12891 23.75 3.75 23.75Z" fill="#FFFFFF" fill-opacity="1.000000" fill-rule="nonzero"/>
		<path id="Vector" d="M6.875 16.25L0.625 16.25C0.28125 16.25 0 15.97 0 15.625C0 15.28 0.28125 15 0.625 15L6.875 15C7.21875 15 7.5 15.28 7.5 15.625C7.5 15.97 7.21875 16.25 6.875 16.25Z" fill="#FFFFFF" fill-opacity="1.000000" fill-rule="nonzero"/>
		<path id="Vector" d="M6.875 20L0.625 20C0.28125 20 0 19.72 0 19.375C0 19.03 0.28125 18.75 0.625 18.75L6.875 18.75C7.21875 18.75 7.5 19.03 7.5 19.375C7.5 19.72 7.21875 20 6.875 20Z" fill="#FFFFFF" fill-opacity="1.000000" fill-rule="nonzero"/>
		<path id="Vector" d="M6.875 12.5L0.625 12.5C0.28125 12.5 0 12.22 0 11.875C0 11.53 0.28125 11.25 0.625 11.25L6.875 11.25C7.21875 11.25 7.5 11.53 7.5 11.875C7.5 12.22 7.21875 12.5 6.875 12.5Z" fill="#FFFFFF" fill-opacity="1.000000" fill-rule="nonzero"/>
		<path id="Vector" d="M28.125 30L11.875 30C10.8398 30 10 29.1587 10 28.125L10 11.875C10 10.8413 10.8398 10 11.875 10L28.125 10C29.1602 10 30 10.8413 30 11.875L30 28.125C30 29.1587 29.1602 30 28.125 30ZM11.875 11.25C11.5312 11.25 11.25 11.5312 11.25 11.875L11.25 28.125C11.25 28.4688 11.5312 28.75 11.875 28.75L28.125 28.75C28.4688 28.75 28.75 28.4688 28.75 28.125L28.75 11.875C28.75 11.5312 28.4688 11.25 28.125 11.25L11.875 11.25Z" fill="#FFFFFF" fill-opacity="1.000000" fill-rule="nonzero"/>
		<path id="Vector" d="M20 18.75C18.9648 18.75 18.125 17.9087 18.125 16.875C18.125 15.8413 18.9648 15 20 15C21.0352 15 21.875 15.8413 21.875 16.875C21.875 17.9087 21.0352 18.75 20 18.75ZM20 16.25C19.6562 16.25 19.375 16.5312 19.375 16.875C19.375 17.2188 19.6562 17.5 20 17.5C20.3438 17.5 20.625 17.2188 20.625 16.875C20.625 16.5312 20.3438 16.25 20 16.25Z" fill="#FFFFFF" fill-opacity="1.000000" fill-rule="nonzero"/>
		<path id="Vector" d="M23.125 23.75C22.7812 23.75 22.5 23.47 22.5 23.125L22.5 22.5C22.5 21.81 21.9414 21.25 21.25 21.25L18.75 21.25C18.0586 21.25 17.5 21.81 17.5 22.5L17.5 23.125C17.5 23.47 17.2188 23.75 16.875 23.75C16.5312 23.75 16.25 23.47 16.25 23.125L16.25 22.5C16.25 21.1213 17.3711 20 18.75 20L21.25 20C22.6289 20 23.75 21.1213 23.75 22.5L23.75 23.125C23.75 23.47 23.4688 23.75 23.125 23.75Z" fill="#FFFFFF" fill-opacity="1.000000" fill-rule="nonzero"/>
	</g>
</svg>
