<svg width="43.773438" height="51.563873" id="reg" viewBox="0 0 43.7734 51.5639" fill="none" xmlns="http://www.w3.org/2000/svg" xmlns:xlink="http://www.w3.org/1999/xlink">
	<desc>
			Created with Pixso.
	</desc>
	<defs/>
	<path id="Vector" d="M37.4414 3.85695L37.4414 47.7065C37.4414 49.5004 35.9883 50.9547 34.1953 50.9547L3.85938 50.9547C2.0625 50.9547 0.609375 49.5004 0.609375 47.7065L0.609375 3.85695C0.609375 2.06303 2.0625 0.608826 3.85938 0.608826L34.1953 0.608826C35.9883 0.608826 37.4414 2.06314 37.4414 3.85695Z" fill="#FFFFFF" fill-opacity="1.000000" fill-rule="nonzero"/>
	<path id="Vector" d="M20.5391 46.8332C20.5391 47.67 19.8633 48.349 19.0273 48.349C18.1914 48.349 17.5117 47.67 17.5117 46.8332C17.5117 45.9964 18.1914 45.3174 19.0273 45.3174C19.8633 45.3174 20.5391 45.9964 20.5391 46.8332Z" fill="#F6F6F6" fill-opacity="1.000000" fill-rule="nonzero"/>
	<path id="Vector" d="M21.918 11.9988C21.918 13.5949 20.6211 14.8866 19.0234 14.8866C17.4297 14.8866 16.1367 13.5949 16.1367 11.9988C16.1367 10.4028 17.4297 9.10425 19.0234 9.10425C20.6211 9.10425 21.918 10.4027 21.918 11.9988Z" fill="#495CEE" fill-opacity="1.000000" fill-rule="nonzero"/>
	<path id="Vector" d="M13.5469 23.7274C13.5469 19.9085 15.9961 16.8017 19.0195 16.8017C22.0469 16.8017 24.5078 19.9085 24.5078 23.7274L13.5469 23.7274Z" fill="#495CEE" fill-opacity="1.000000" fill-rule="nonzero"/>
	<path id="Vector" d="M43.1641 12.648C43.1641 15.8148 40.6055 18.3727 37.4492 18.3727C34.2812 18.3727 31.7227 15.8148 31.7227 12.648C31.7227 9.48921 34.2812 6.93127 37.4492 6.93127C40.6055 6.93127 43.1641 9.48921 43.1641 12.648Z" fill="#34BBDA" fill-opacity="1.000000" fill-rule="nonzero"/>
	<path id="Vector" d="M24.9648 4.16327L25.8438 4.16327C26.1797 4.16327 26.4531 3.89052 26.4531 3.55429C26.4531 3.21805 26.1797 2.94531 25.8438 2.94531L24.9648 2.94531C24.6289 2.94531 24.3555 3.21805 24.3555 3.55429C24.3555 3.89052 24.6289 4.16327 24.9648 4.16327Z" fill="#2C2C2C" fill-opacity="1.000000" fill-rule="nonzero"/>
	<path id="Vector" d="M12.207 4.16327L21.8477 4.16327C22.1836 4.16327 22.457 3.89052 22.457 3.55429C22.457 3.21805 22.1836 2.94531 21.8477 2.94531L12.207 2.94531C11.8711 2.94531 11.5977 3.21805 11.5977 3.55429C11.5977 3.89052 11.8711 4.16327 12.207 4.16327Z" fill="#2C2C2C" fill-opacity="1.000000" fill-rule="nonzero"/>
	<path id="Vector" d="M19.0273 44.7084C17.8555 44.7084 16.9023 45.6617 16.9023 46.8329C16.9023 48.005 17.8555 48.9581 19.0273 48.9581C20.1953 48.9581 21.1484 48.0049 21.1484 46.8329C21.1484 45.6617 20.1953 44.7084 19.0273 44.7084ZM19.0273 47.74C18.5273 47.74 18.1211 47.3332 18.1211 46.8328C18.1211 46.3332 18.5273 45.9264 19.0273 45.9264C19.5234 45.9264 19.9297 46.3332 19.9297 46.8328C19.9297 47.3332 19.5234 47.74 19.0273 47.74Z" fill="#2C2C2C" fill-opacity="1.000000" fill-rule="nonzero"/>
	<path id="Vector" d="M19.0234 8.49542C17.0977 8.49542 15.5273 10.0671 15.5273 11.9989C15.5273 13.9275 17.0977 15.496 19.0234 15.496C20.957 15.496 22.5273 13.9275 22.5273 11.9989C22.5273 10.0671 20.957 8.49542 19.0234 8.49542ZM19.0234 14.278C17.7656 14.278 16.7461 13.2558 16.7461 11.9989C16.7461 10.7388 17.7695 9.71349 19.0234 9.71349C20.2852 9.71349 21.3086 10.7388 21.3086 11.9989C21.3086 13.2558 20.2852 14.278 19.0234 14.278Z" fill="#2C2C2C" fill-opacity="1.000000" fill-rule="nonzero"/>
	<path id="Vector" d="M12.9375 23.7273C12.9375 24.0636 13.2109 24.3363 13.5469 24.3363L24.5078 24.3363L24.5234 24.3363C24.8594 24.3363 25.1328 24.0636 25.1328 23.7273C25.1328 23.6773 25.125 23.629 25.1133 23.5822C25.0508 19.4943 22.3438 16.1931 19.0195 16.1931C15.668 16.1931 12.9375 19.5728 12.9375 23.7273ZM23.875 23.1182L14.1797 23.1182C14.4141 19.9201 16.4961 17.411 19.0195 17.411C21.5508 17.4111 23.6367 19.9201 23.875 23.1182Z" fill="#2C2C2C" fill-opacity="1.000000" fill-rule="nonzero"/>
	<path id="Vector" d="M7.77344 29.3536L30.2734 29.3536C30.6094 29.3536 30.8828 29.0809 30.8828 28.7447C30.8828 28.4084 30.6094 28.1357 30.2734 28.1357L7.77344 28.1357C7.4375 28.1357 7.16406 28.4084 7.16406 28.7447C7.16406 29.0808 7.4375 29.3536 7.77344 29.3536Z" fill="#2C2C2C" fill-opacity="1.000000" fill-rule="nonzero"/>
	<path id="Vector" d="M7.77344 34.9379L30.2734 34.9379C30.6094 34.9379 30.8828 34.6651 30.8828 34.3289C30.8828 33.9926 30.6094 33.7199 30.2734 33.7199L7.77344 33.7199C7.4375 33.7199 7.16406 33.9926 7.16406 34.3289C7.16406 34.6651 7.4375 34.9379 7.77344 34.9379Z" fill="#2C2C2C" fill-opacity="1.000000" fill-rule="nonzero"/>
	<path id="Vector" d="M24.6094 39.3052L13.4492 39.3052C13.1133 39.3052 12.8398 39.5779 12.8398 39.9142C12.8398 40.2504 13.1133 40.5231 13.4492 40.5231L24.6094 40.5231C24.9453 40.5231 25.2148 40.2504 25.2148 39.9142C25.2148 39.578 24.9453 39.3052 24.6094 39.3052Z" fill="#2C2C2C" fill-opacity="1.000000" fill-rule="nonzero"/>
	<path id="Vector" d="M0 3.8571L0 47.7068C0 49.8336 1.73047 51.5639 3.85547 51.5639L34.1953 51.5639C36.3203 51.5639 38.0508 49.8336 38.0508 47.7068L38.0508 18.9513C41.2578 18.6454 43.7734 15.9363 43.7734 12.6483C43.7734 9.36404 41.2578 6.65887 38.0508 6.35323L38.0508 3.8571C38.0508 1.73032 36.3203 0 34.1953 0L3.85547 0C1.73047 0 0 1.73032 0 3.8571ZM37.4453 7.54059C40.2617 7.54059 42.5547 9.83159 42.5547 12.6483C42.5547 15.469 40.2617 17.764 37.4453 17.764C34.625 17.764 32.332 15.4691 32.332 12.6483C32.332 9.83159 34.625 7.54059 37.4453 7.54059ZM1.21875 3.8571C1.21875 2.40195 2.40234 1.21796 3.85547 1.21796L34.1953 1.21796C35.6484 1.21796 36.832 2.40195 36.832 3.8571L36.832 6.35355C33.6289 6.66267 31.1133 9.36668 31.1133 12.6482C31.1133 15.9336 33.6289 18.6412 36.832 18.9508L36.832 47.7068C36.832 49.1619 35.6484 50.3459 34.1953 50.3459L3.85547 50.3459C2.40234 50.3459 1.21875 49.1619 1.21875 47.7068L1.21875 3.8571L1.21875 3.8571Z" fill="#2C2C2C" fill-opacity="1.000000" fill-rule="nonzero"/>
	<path id="Vector" d="M36.1289 14.5928C36.3672 14.8307 36.75 14.8307 36.9883 14.5928L40.0117 11.5723C40.25 11.3343 40.25 10.9489 40.0117 10.7111C39.7734 10.4732 39.3867 10.4732 39.1484 10.7111L36.5586 13.301L35.7344 12.4771C35.4961 12.2391 35.1133 12.2391 34.875 12.4771C34.6367 12.715 34.6367 13.1004 34.875 13.3382L36.1289 14.5928Z" fill="#FFFFFF" fill-opacity="1.000000" fill-rule="nonzero"/>
</svg>
